<svg id="SvgjsSvg1001" width="288" height="288" xmlns="http://www.w3.org/2000/svg" version="1.1" xmlns:xlink="http://www.w3.org/1999/xlink" xmlns:svgjs="http://svgjs.com/svgjs"><defs id="SvgjsDefs1002"></defs><g id="SvgjsG1008"><svg xmlns="http://www.w3.org/2000/svg" width="288" height="288" version="1.0" viewBox="0 0 500 500"><g transform="matrix(.1 0 0 -.1 0 500)" fill="#fffdfd" class="color000 svgShape"><path d="M1550 3109c-93-42-170-145-170-227 0-52 15-99 76-246 57-136 65-185 40-235-33-63-129-120-180-107-53 13-58 104-11 204 21 45 22 54 9 59-20 7-79-49-107-102-28-54-29-135-2-165 33-36 71-50 137-50 154 0 279 121 265 256-4 35-19 77-47 128-23 43-40 79-37 82 3 3-4 27-15 52-13 29-21 69-21 105 0 48 5 65 29 100 41 58 127 109 179 105 35-3 40-6 43-30 3-28-20-78-68-143-55-74-34-87 36-23 58 54 104 120 104 150 0 86-151 137-260 87zm-343-711c-3-8-6-5-6 6-1 11 2 17 5 13 3-3 4-12 1-19zM3798 3103c-30-35-88-130-109-179-12-27-23-51-26-53-2-3-53-8-114-11-60-4-115-12-120-17-15-15 70-24 152-17l68 7-34-88c-19-49-35-94-35-100 0-15-120-176-169-228-45-48-97-81-112-71-8 4-9 27-5 70 9 84 13 92 51 108 41 18 112 81 131 117 30 58 9 102-53 115-56 11-100-23-168-132-89-142-192-257-248-277-27-10-35 26-23 97 10 55 14 63 46 78 90 45 159 131 146 181-8 35-58 61-101 53-37-7-105-75-132-131-17-36-203-195-203-174 0 6 16 42 36 79 40 77 41 100 2 114-37 13-47 3-136-132-69-105-114-153-128-139-16 16 23 117 77 197 65 98 89 117 145 122 34 3 39 6 39 28 0 37-42 54-97 39-32-8-59-28-110-82-38-39-68-75-68-80 0-18-142-147-162-147-11 0-7 28 12 101 6 20 26 56 45 80 38 48 45 88 19 113-19 19-35 20-55 4-23-19-93-107-134-169l-37-54 6 46c6 53 31 113 60 146 16 19 17 25 6 38-7 8-25 15-40 15-26 0-30-6-60-87-17-49-34-104-37-123-3-19-12-47-19-61-20-40-93-129-106-129-18 0-1 133 28 204 20 52 23 69 14 85-14 27-54 27-80 1-24-24-30-25-30-5 0 8-13 29-28 46-37 41-66 35-126-25-74-73-117-227-82-294 35-67 101-32 184 96 18 30 36 51 39 49 2-3 0-22-6-44-17-60-13-107 12-144 43-64 93-45 162 60 31 48 44 60 60 56 26-6 36 2 63 47 23 38 118 161 110 143-2-5-12-27-21-47-9-20-20-61-23-92-6-52-5-57 24-85 39-39 68-39 109 1 31 30 33 31 33 9 0-28 22-70 49-95 32-29 61-10 132 86 34 46 63 85 65 87 2 2-6-29-17-69-19-70-24-78-112-164-93-93-167-200-167-244 0-82 88-138 149-95 33 23 103 176 145 318 40 131 36 125 168 231l58 45-5-33c-4-26-3-29 4-13 12 25 14 3 4-46-7-33-7-33-14-9-6 20-7 17-8-17-1-51 35-98 85-112 46-13 78 10 170 121 42 51 74 84 71 73-30-108-7-172 71-194 46-14 84 12 162 110 39 49 73 89 75 89 1 0-6-37-16-82-19-84-24-163-13-193 11-28 61-47 87-34 27 14 31 19 128 145 125 163 171 236 159 248-8 8-17 3-33-19-12-16-65-84-118-150-144-181-162-191-140-82 23 110 149 468 174 493 3 3 36 8 73 10 43 2 73 9 83 19 14 13 7 15-63 15l-77 0 32 58c18 31 50 81 71 111 29 42 35 57 27 68-17 19-83 17-101-4zm-673-393c13-21-17-81-58-115-23-20-43-32-45-26-4 11 44 109 66 134 17 19 28 22 37 7zm313-24c3-22-7-38-47-78-28-28-54-49-56-46-7 7 30 93 56 130 25 34 43 32 47-6zm-1539-48c10-41 9-46-25-94-49-73-101-130-109-122-12 11 14 106 49 184 42 90 67 99 85 32zm1742-45c-12-20-14-14-5 12 4 9 9 14 11 11 3-2 0-13-6-23zm-410-124c-6-24-9-28-10-12-1 24 9 56 16 50 2-3 0-20-6-38zm-642-279c-58-159-101-229-133-217-30 12-31 58-2 112 25 48 154 201 162 192 2-2-10-41-27-87z" fill="#fffdfd" class="color000 svgShape"></path></g></svg></g></svg>